<svg width="756" height="738" viewBox="0 0 756 738" fill="none" xmlns="http://www.w3.org/2000/svg">
<path d="M259.284 2.96013C253.082 7.83278 252.344 11.5242 255.002 25.2562C259.875 51.2437 254.854 76.4929 238.169 107.501C228.276 126.253 223.404 138.952 220.598 153.127C213.363 190.779 226.947 227.102 255.888 248.069C263.714 253.68 271.687 253.976 277.003 248.66C281.285 244.378 281.285 244.378 277.593 215.88C274.05 189.302 278.479 169.516 292.654 148.106C308.454 124.038 314.95 104.695 315.098 80.332C315.246 63.2039 313.179 53.3109 306.386 38.9883C300.037 25.5515 291.473 14.9203 280.399 6.65153C270.211 -1.02659 265.338 -1.76487 259.284 2.96013Z" fill="#1E1B1B"/>
<path d="M378.442 46.371C370.912 49.6194 370.026 53.0155 372.093 68.0765C375.342 90.9632 373.127 101.151 357.918 132.012C346.401 155.637 343.595 166.858 344.334 185.906C345.515 209.236 354.079 227.102 370.617 240.096C379.476 247.036 385.235 248.217 390.993 244.083C396.752 240.096 397.342 235.814 394.832 220.901C390.698 197.719 393.799 181.772 405.906 163.315C421.706 138.951 427.021 114.884 421.558 91.7015C417.424 74.5733 406.94 58.0358 394.685 49.7671C387.154 44.5991 384.053 43.8608 378.442 46.371Z" fill="#1E1B1B"/>
<path d="M22.8864 272.285C11.0739 276.419 2.50979 289.561 0.442606 306.689C-1.18161 321.012 13.141 385.39 27.9067 429.539C65.4114 541.462 125.064 620.311 202.289 660.03L214.84 666.527L129.937 667.266C36.0278 668.152 41.1957 667.561 31.5981 677.897C23.92 685.87 21.5575 692.072 21.5575 702.703C21.7051 717.173 28.202 727.657 41.3434 734.597C46.3637 737.255 55.9614 737.402 321.152 737.402H595.793L601.699 734.154C614.397 727.362 620.747 716.73 620.747 702.703C620.747 688.085 613.216 675.977 600.222 670.071C594.759 667.561 588.558 667.266 510.89 667.266H427.465L442.525 659.292C470.58 644.527 486.675 632.566 513.105 606.727C529.347 590.78 529.347 590.78 538.207 589.746C551.643 588.122 572.02 582.659 589.296 575.866C667.111 545.449 736.066 465.272 753.047 385.39C755.557 374.02 756.147 367.966 755.261 361.174C753.194 342.569 744.778 328.837 730.75 321.012L722.777 316.582L682.762 316.139L642.747 315.696L641.861 306.098C640.237 289.561 633.593 278.044 622.371 272.876C616.76 270.218 605.243 270.07 322.629 270.218C74.4184 270.218 27.9067 270.513 22.8864 272.285ZM682.172 385.095C682.172 390.558 669.03 417.727 659.728 431.606C647.177 450.211 629.163 469.997 612.035 483.729C603.618 490.373 589 500.414 587.376 500.414C586.786 500.414 589.296 494.212 592.84 486.682C604.209 462.319 623.552 406.505 626.948 388.491L627.834 383.766H655.003C669.916 383.766 682.172 384.356 682.172 385.095Z" fill="#1E1B1B"/>
</svg>
