<svg width="20" height="20" viewBox="0 0 20 20" fill="none" xmlns="http://www.w3.org/2000/svg">
<path d="M4.6424 6.57247C4.40365 4.99997 5.5124 3.58747 7.20615 3.06997C7.50672 2.97808 7.83102 3.00424 8.11297 3.14312C8.39492 3.28201 8.61331 3.52317 8.72365 3.81747L9.2674 5.26747C9.35493 5.50074 9.37076 5.75484 9.31285 5.99717C9.25494 6.23949 9.12594 6.45899 8.9424 6.62747L7.3249 8.10872C7.24517 8.18189 7.18576 8.27447 7.15246 8.37743C7.11916 8.48039 7.11311 8.59023 7.1349 8.69622L7.1499 8.76122L7.18865 8.92372C7.3898 9.71328 7.69631 10.4722 8.0999 11.18C8.53954 11.9321 9.08513 12.617 9.7199 13.2137L9.7699 13.2587C9.85065 13.3304 9.94859 13.3799 10.0542 13.4025C10.1598 13.4251 10.2694 13.4199 10.3724 13.3875L12.4636 12.7287C12.7013 12.6541 12.9559 12.6522 13.1946 12.7232C13.4334 12.7943 13.6454 12.9351 13.8036 13.1275L14.7936 14.3287C15.2061 14.8287 15.1561 15.5637 14.6824 16.005C13.3861 17.2137 11.6036 17.4612 10.3636 16.465C8.84368 15.2389 7.56234 13.7436 6.58365 12.0537C5.59701 10.3651 4.93922 8.50551 4.6424 6.57247ZM8.4449 8.77872L9.7849 7.54872C10.1522 7.21189 10.4104 6.77298 10.5265 6.28832C10.6425 5.80366 10.6111 5.29538 10.4361 4.82872L9.89365 3.37872C9.67158 2.78682 9.23227 2.3018 8.66516 2.02242C8.09804 1.74304 7.44577 1.69032 6.84115 1.87497C4.7374 2.51872 3.04865 4.40497 3.40615 6.76122C3.65615 8.40622 4.2324 10.4987 5.50365 12.6837C6.55954 14.5058 7.94172 16.1181 9.58115 17.44C11.4411 18.9337 13.9236 18.4237 15.5361 16.9212C15.9975 16.4916 16.2776 15.9021 16.3192 15.2731C16.3608 14.644 16.1607 14.0228 15.7599 13.5362L14.7699 12.3337C14.4532 11.9493 14.0289 11.6683 13.5514 11.5266C13.0739 11.385 12.565 11.3892 12.0899 11.5387L10.3536 12.085C9.90536 11.6228 9.51269 11.1097 9.18365 10.5562C8.8658 9.99667 8.6181 9.4001 8.44615 8.77997" fill="black"/>
</svg>
