<svg width="65" height="65" viewBox="0 0 65 65" fill="none" xmlns="http://www.w3.org/2000/svg">
<rect width="65" height="65" rx="5" fill="white"/>
<g clip-path="url(#clip0_105_20)">
<path d="M50.9422 41.9665L49.262 49.2509C49.026 50.2806 48.1209 51.0011 47.0608 51.0011C28.8289 50.9997 14 36.1708 14 17.9382C14 16.8788 14.7204 15.9725 15.7503 15.7377L23.0346 14.0575C24.0955 13.8117 25.1795 14.3623 25.6203 15.367L28.9821 23.2078C29.3751 24.1313 29.11 25.2074 28.3332 25.8419L24.4424 28.9659C26.898 33.9681 30.9651 38.0352 35.9688 40.4923L39.1542 36.6044C39.7821 35.8254 40.8662 35.5558 41.7897 35.9558L49.6306 39.3169C50.5736 39.813 51.1879 40.9114 50.9422 41.9665Z" fill="#48312B"/>
</g>
<defs>
<clipPath id="clip0_105_20">
<rect width="37" height="37" fill="white" transform="translate(14 14)"/>
</clipPath>
</defs>
</svg>
