<svg width="65" height="65" viewBox="0 0 65 65" fill="none" xmlns="http://www.w3.org/2000/svg">
<rect width="65" height="65" rx="5" fill="white"/>
<g clip-path="url(#clip0_105_10)">
<path d="M52.7778 27.6249L45.0167 27.6251L37.9041 13.9827C37.441 13.09 36.3297 12.7358 35.4322 13.2042C34.5323 13.6684 34.184 14.7726 34.6515 15.6676L40.8856 27.619H23.116L29.3501 15.6676C29.8153 14.7763 29.4715 13.6719 28.5701 13.2077C27.6688 12.7412 26.5611 13.0935 26.0951 13.9864L18.9826 27.6288L11.2222 27.6249C10.5472 27.6249 10 28.1706 10 28.7751V31.2126C10 31.8857 10.5472 32.3628 11.2222 32.3628H12.9876L16.4824 48.0466C16.9797 50.4156 18.9604 51.9999 21.2521 51.9999H42.7403C44.9632 51.9999 47.0158 50.4133 47.5131 48.1822L51.0078 32.4984H52.7778C53.4529 32.4984 54 31.9527 54 31.3482V28.9107C54 28.1734 53.45 27.6249 52.7778 27.6249ZM24.6667 45.9062C24.6667 46.5791 24.1193 47.0564 23.4444 47.0564C22.7698 47.0564 22.2222 46.5105 22.2222 45.9062V36.1562C22.2222 35.4833 22.7698 35.006 23.4444 35.006C24.1193 35.006 24.6667 35.5518 24.6667 36.1562V45.9062ZM33.2222 45.9062C33.2222 46.5791 32.6748 47.0564 32 47.0564C31.3253 47.0564 30.7778 46.5106 30.7778 45.9062V36.1562C30.7778 35.4833 31.3253 35.006 32 35.006C32.6748 35.006 33.2222 35.5518 33.2222 36.1562V45.9062ZM41.7778 45.9062C41.7778 46.5791 41.2304 47.0564 40.5556 47.0564C39.8809 47.0564 39.3333 46.5105 39.3333 45.9062V36.1562C39.3333 35.4833 39.8809 35.006 40.5556 35.006C41.2304 35.006 41.7778 35.5518 41.7778 36.1562V45.9062Z" fill="#48312B"/>
</g>
<defs>
<clipPath id="clip0_105_10">
<rect width="44" height="39" fill="white" transform="translate(10 13)"/>
</clipPath>
</defs>
</svg>
