<svg width="40" height="40" viewBox="0 0 40 40" fill="none" xmlns="http://www.w3.org/2000/svg">
<path d="M19.9609 1.25C16.4003 1.25722 12.9153 2.27859 9.91407 4.19453L10.625 5.22344C13.4297 3.44453 16.6797 2.5 20 2.5C22.1328 2.5 24.25 2.88906 26.2422 3.65L26.7344 2.50078C24.5854 1.67387 22.3026 1.24986 20 1.25H19.9609ZM28.0313 3.05625L27.5391 4.20547C31.7813 6.22969 35.0313 9.875 36.5547 14.3203L37.75 13.9609C36.625 8.86719 33.375 4.78906 28.0313 3.05625ZM19.9531 3.98438C16.9531 3.99297 14.0078 4.84531 11.4688 6.44453L19.8516 18.5547C22.2891 14.1953 24.125 9.64844 25.6563 5.01563C23.8516 4.33359 21.9297 3.98438 20 3.98438H19.9531ZM22.25 4.68203L23.7422 6.54609L22.6484 7.425L21.1563 5.56016L22.25 4.68203ZM8.75782 4.99453C2.9047 8.14063 1.61251 12.9063 1.34376 18.125L2.5922 18.2031C3.09142 13.3672 5.58282 8.95313 9.46876 6.02266L8.75782 4.99453ZM17.3594 5.54688C18 5.54688 18.5938 5.7125 19.0703 6.03125C19.5469 6.34922 19.9297 6.87109 19.9297 7.5C19.9297 8.13281 19.5469 8.64844 19.0703 8.96875C18.5938 9.28906 18 9.45313 17.3594 9.45313C16.7188 9.45313 16.125 9.28906 15.6484 8.96875C15.1719 8.64844 14.7891 8.13281 14.7891 7.5C14.7891 6.87109 15.1719 6.34922 15.6484 6.03125C16.125 5.7125 16.7188 5.54688 17.3594 5.54688ZM26.9531 5.57109C25.5234 10.2031 23.6953 14.6719 21.2422 18.8906L26.5781 17.2969C26.3281 16.9141 26.1875 16.4453 26.1875 15.9531C26.1875 14.7813 27.0078 13.7031 28.1719 13.7031C29.3359 13.7031 30.1563 14.7813 30.1563 15.9531C30.1563 16.0469 30.1484 16.1406 30.1406 16.2422L35.1328 14.75C33.7344 10.7266 30.7891 7.42031 26.9531 5.57109ZM17.3594 6.95313C16.9688 6.95313 16.6328 7.06563 16.4297 7.2C16.2266 7.33359 16.1953 7.43828 16.1953 7.5C16.1953 7.56172 16.2266 7.66641 16.4297 7.8C16.6328 7.9375 16.9688 8.04688 17.3594 8.04688C17.75 8.04688 18.0859 7.9375 18.2891 7.8C18.4922 7.66641 18.5234 7.56172 18.5234 7.5C18.5234 7.43828 18.4922 7.33359 18.2891 7.2C18.0859 7.06563 17.75 6.95313 17.3594 6.95313ZM10.3125 7.24375C6.80001 9.91406 4.54298 13.9141 4.07501 18.2969C8.96876 18.3438 13.8516 18.4375 18.6016 19.2031L17.1094 17.0469L15.6641 17.8359L14.9922 16.6016L16.3047 15.8828L11.8516 9.46875L10.0469 10.8984L9.17189 9.78906L11.0469 8.30469L10.3125 7.24375ZM28.5625 8.32031L29.5156 9.89063L28.3125 10.625L27.3594 9.05469L28.5625 8.32031ZM20.2422 10.125L20.8516 11.3906L18.4922 12.5078L17.8828 11.2422L20.2422 10.125ZM9.64064 11.7969C10.9688 11.7969 11.9531 13.0156 11.9531 14.375C11.9531 15.7344 10.9688 16.9531 9.64064 16.9531C8.31251 16.9531 7.32814 15.7344 7.32814 14.375C7.32814 13.0156 8.31251 11.7969 9.64064 11.7969ZM32.9219 12.5234L33.2109 14.6797L31.8203 14.8672L31.5313 12.7109L32.9219 12.5234ZM9.64064 13.2031C9.19532 13.2031 8.73439 13.6641 8.73439 14.375C8.73439 15.0859 9.19532 15.5469 9.64064 15.5469C10.0859 15.5469 10.5469 15.0859 10.5469 14.375C10.5469 13.6641 10.0859 13.2031 9.64064 13.2031ZM28.1719 15.1094C27.9219 15.1094 27.5938 15.4141 27.5938 15.9531C27.5938 16.4922 27.9219 16.7969 28.1719 16.7969C28.4219 16.7969 28.75 16.4922 28.75 15.9531C28.75 15.4141 28.4219 15.1094 28.1719 15.1094ZM38.1563 15.3125L36.9531 15.6641C37.3125 17.0781 37.5 18.5391 37.5 20C37.5 23.6797 36.3438 27.2656 34.1875 30.25L35.1719 31.0234C37.5 27.8203 38.75 23.9609 38.75 20C38.75 18.4219 38.5547 16.8438 38.1563 15.3125ZM35.5313 16.0938L25.8438 18.9922L26.625 19.5469L25.8125 20.6875L24.1406 19.5L21.5 20.2891C25.0234 23.6406 29.1328 26.3594 33.0156 29.3281C34.875 26.6094 35.4688 23.3438 36.0156 20C36.2266 18.6953 35.8516 17.3672 35.5313 16.0938ZM1.25548 19.5313C1.24767 19.6875 1.25548 19.8438 1.24767 20C0.850791 25.4922 1.95548 30.8359 7.69845 34.1563L8.48438 33.1797C4.68126 29.8594 2.49923 25.0547 2.50001 20V19.6094L1.25548 19.5313ZM3.98751 19.7031V20C3.98751 21.7188 4.26251 23.4219 4.80392 25.0547L5.66251 23.2188L6.93595 23.8125L5.51954 26.8438C6.45235 28.8203 7.77813 30.5781 9.41407 32.0234L18.5938 20.6172L8.50782 19.9844L6.58595 21.8984L5.5922 20.8984L6.62501 19.8672L3.98751 19.7031ZM32.7031 20.7266C32.8828 20.7188 33.0625 20.7422 33.2422 20.8047C33.8047 20.9766 34.2031 21.4375 34.3906 21.9609C34.5781 22.4688 34.5781 23.0469 34.3984 23.6172C34.2266 24.1797 33.8828 24.6563 33.4453 24.9766C32.9922 25.2813 32.4063 25.4375 31.8359 25.2578C31.6328 25.1953 31.4531 25.0938 31.2969 24.9688L30.6875 25.6641L28.5313 23.8047L29.4531 22.7422L30.5859 23.7188C30.5078 23.3047 30.5391 22.8672 30.6719 22.4453C30.8516 21.875 31.1875 21.4063 31.6328 21.0938C31.9453 20.875 32.3203 20.7344 32.7031 20.7266ZM12.3047 21.1563L14.625 22.0313L14.125 23.3438L11.8047 22.4688L12.3047 21.1563ZM20.7969 21.5156L21.2109 28.125C21.5859 28.2031 21.9297 28.3281 22.2344 28.5078C22.7578 28.8125 23.2031 29.3359 23.2031 30C23.2031 30.6641 22.7578 31.1875 22.2344 31.4922C21.9922 31.6328 21.7266 31.7422 21.4453 31.8203L21.7031 35.9219C22.5703 35.8281 23.4219 35.6641 24.2578 35.4375L24.5313 33.1641L25.9219 33.3359L25.7266 34.9531C28.2109 34.0078 30.4141 32.4531 32.1484 30.4375C30.5313 29.1641 28.6016 28.2578 27.2891 26.6172L26.7266 28.1875L25.3984 27.7188L26.1172 25.6953C23.9141 24.6016 22.5391 22.9297 20.7969 21.5156ZM19.4141 21.8516L10.5078 32.8984C13.2578 34.9219 16.5859 36.0156 20 36.0156H20.2969L20.0391 31.9375C19.4766 31.8984 18.9609 31.75 18.5313 31.4922C18.0078 31.1875 17.5625 30.6641 17.5625 30C17.5625 29.3359 18.0078 28.8125 18.5313 28.5078C18.8984 28.2891 19.3359 28.1484 19.8047 28.0859L19.4141 21.8516ZM32.7422 22.1328C32.6641 22.125 32.5703 22.1563 32.4453 22.2344C32.2813 22.3516 32.1094 22.5781 32.0156 22.8672C31.9297 23.1563 31.9453 23.4375 32.0078 23.625C32.0781 23.8125 32.1719 23.8906 32.2578 23.9141C32.3516 23.9453 32.4688 23.9297 32.6328 23.8203C32.7891 23.7109 32.9688 23.4844 33.0625 23.1953C33.1484 22.9063 33.1328 22.6172 33.0703 22.4375C33 22.25 32.9063 22.1719 32.8203 22.1406C32.7969 22.1328 32.7734 22.1328 32.7422 22.1328ZM9.82814 24.4688C10.1641 24.4766 10.5 24.5547 10.8125 24.7031C11.9297 25.2422 12.4766 26.5859 11.9375 27.7031C11.3984 28.8281 10.0078 29.2422 8.89064 28.7031C7.77189 28.1641 7.2297 26.8281 7.7672 25.7031C8.15626 24.8984 8.97657 24.4609 9.82814 24.4688ZM9.75782 25.8672C9.44532 25.875 9.16407 26.0391 9.03126 26.3125C8.84376 26.7109 9.02345 27.2109 9.50001 27.4375C9.97657 27.6641 10.4766 27.4922 10.6719 27.0938C10.8594 26.7031 10.6797 26.2031 10.2031 25.9766C10.0547 25.8984 9.89845 25.8672 9.75782 25.8672ZM20.3828 29.4531C19.9141 29.4531 19.4922 29.5781 19.2422 29.7188C18.9922 29.8672 18.9688 29.9766 18.9688 30C18.9688 30.0234 18.9922 30.1328 19.2422 30.2813C19.4922 30.4219 19.9141 30.5469 20.3828 30.5469C20.8516 30.5469 21.2734 30.4219 21.5234 30.2813C21.7734 30.1328 21.7969 30.0234 21.7969 30C21.7969 29.9766 21.7734 29.8672 21.5234 29.7188C21.2734 29.5781 20.8516 29.4531 20.3828 29.4531ZM33.3125 31.3594C30.3906 34.7813 26.2734 36.9453 21.7969 37.4063L21.875 38.6563C26.875 38.9141 31.6094 37.7734 34.2969 32.1328L33.3125 31.3594ZM14.1016 31.5938L16.2969 31.7969L16.1719 33.2031L13.9766 33L14.1016 31.5938ZM9.57813 34.0547L8.79688 35.0313C11.6172 38.5469 15.8438 39.0703 20 38.75C20.1563 38.7344 20.3125 38.75 20.4688 38.7422L20.3906 37.4922C20.2578 37.5 20.1328 37.5 20 37.5C16.25 37.5 12.5938 36.2891 9.57813 34.0547Z" fill="black"/>
</svg>
